<?xml version="1.0" encoding="iso-8859-1"?>
<!-- Generator: Adobe Illustrator 18.1.1, SVG Export Plug-In . SVG Version: 6.00 Build 0)  -->
<svg version="1.1" xmlns="http://www.w3.org/2000/svg" xmlns:xlink="http://www.w3.org/1999/xlink">
    <symbol id="subject" viewBox="0 0 581.176 581.176">
		<path d="M163.553,316.79l50.248-99.672l36.638,109.164l56.059-180.746l44.315,219.733l39.06-48.431l119.141-0.024
			c30.076-40.876,46.882-80.517,46.882-123.597c0-81.655-63.687-144.786-145.924-144.786c-45.09,0-90.203,21.068-119.383,55.26
			c-29.18-34.193-74.294-55.26-119.383-55.26c-82.236,0-145.924,63.13-145.924,144.761c0,33.805,10.485,65.552,29.519,97.395H0
			v26.201h72.139h59.982H163.553z"/>
		<path d="M581.176,343.015H396.241l-52.839,65.528l-42.305-156.336l-50.151,130.135l-39.641-104.854l-31.456,65.528H93.134
			c39.52,46.179,94.344,94.998,160.356,152.874l37.098,36.856l37.098-36.856c53.735-47.099,99.551-88.121,136.213-126.672h117.277
			V343.015z"/>
    </symbol>
</svg>
