<?xml version="1.0" encoding="iso-8859-1"?>
<!-- Generator: Adobe Illustrator 16.0.0, SVG Export Plug-In . SVG Version: 6.00 Build 0)  -->
<!DOCTYPE svg PUBLIC "-//W3C//DTD SVG 1.1//EN" "http://www.w3.org/Graphics/SVG/1.1/DTD/svg11.dtd">
<svg version="1.1" xmlns="http://www.w3.org/2000/svg" xmlns:xlink="http://www.w3.org/1999/xlink">
    <symbol id="update" viewBox="0 0 408 408">
		<path d="M0,204c0,56.1,22.95,107.1,61.2,142.8L0,408h153V255l-56.1,56.1C68.85,285.6,51,247.35,51,204
			c0-66.3,43.35-122.4,102-145.35v-51C66.3,30.6,0,109.65,0,204z M408,0H255v153l56.1-56.1C339.15,122.4,357,160.65,357,204
			c0,66.3-43.35,122.4-102,145.35V402.9c86.7-22.95,153-102,153-196.351c0-56.1-22.95-107.1-61.2-142.8L408,0z"/>
    </symbol>
</svg>
