<?xml version="1.0" encoding="iso-8859-1"?>
<!-- Generator: Adobe Illustrator 18.0.0, SVG Export Plug-In . SVG Version: 6.00 Build 0)  -->
<!DOCTYPE svg PUBLIC "-//W3C//DTD SVG 1.1//EN" "http://www.w3.org/Graphics/SVG/1.1/DTD/svg11.dtd">
<svg version="1.1" xmlns="http://www.w3.org/2000/svg" xmlns:xlink="http://www.w3.org/1999/xlink">
    <symbol id="service" viewBox="0 0 58.529 58.529">
        <path d="M58.235,56.822l-5.541-5.541c0.414-0.846,0.429-1.853-0.01-2.73l-2.111-4.22c0.106-0.821-0.145-1.68-0.774-2.309
            l-3.801-3.801l-3.722,3.722c-0.195,0.195-0.451,0.293-0.707,0.293s-0.512-0.098-0.707-0.293c-0.391-0.391-0.391-1.023,0-1.414
            l3.722-3.722l-1.586-1.586l-2.722,2.722c-0.195,0.195-0.451,0.293-0.707,0.293s-0.512-0.098-0.707-0.293
            c-0.391-0.391-0.391-1.023,0-1.414l2.722-2.722l-1.586-1.586l-3.722,3.722c-0.195,0.195-0.451,0.293-0.707,0.293
            s-0.512-0.098-0.707-0.293c-0.391-0.391-0.391-1.023,0-1.414l3.722-3.722l-1.586-1.586l-2.722,2.722
            c-0.195,0.195-0.451,0.293-0.707,0.293s-0.512-0.098-0.707-0.293c-0.391-0.391-0.391-1.023,0-1.414l2.722-2.722l-7.873-7.873
            l2.603-2.603c1.149-0.23,2.206-0.792,3.054-1.64c2.339-2.339,2.339-6.146,0-8.485c-1.134-1.133-2.641-1.757-4.243-1.757
            s-3.109,0.624-4.242,1.757c-1.134,1.133-1.758,2.64-1.758,4.242c0,0.11,0.01,0.219,0.016,0.328l-1.794,1.794l-2.304-2.305
            c-0.856-0.854-2.229-0.991-3.265-0.436l-2.934-2.934c0.099-0.454,0.154-0.92,0.154-1.396c0-1.736-0.677-3.369-1.904-4.596
            S8.235,0,6.499,0S3.13,0.676,1.902,1.904c-2.534,2.534-2.534,6.658,0,9.192C3.13,12.324,4.762,13,6.499,13
            c0.476,0,0.942-0.055,1.395-0.154l2.928,2.928c-0.582,1.044-0.443,2.385,0.443,3.271l2.304,2.304l-1.794,1.794
            c-0.109-0.006-0.217-0.016-0.327-0.016c-1.603,0-3.109,0.624-4.242,1.757c-1.134,1.133-1.758,2.64-1.758,4.242
            c0,1.603,0.624,3.109,1.758,4.243c1.133,1.133,2.64,1.757,4.242,1.757s3.109-0.624,4.243-1.757c0.863-0.864,1.403-1.928,1.629-3.044
            l2.613-2.613L42.021,49.8c0.521,0.522,1.216,0.81,1.954,0.81c0.12,0,0.237-0.02,0.355-0.035l4.221,2.11
            c0.426,0.213,0.901,0.325,1.377,0.325c0.476,0,0.93-0.119,1.346-0.322l5.548,5.547c0.195,0.195,0.451,0.293,0.707,0.293
            s0.512-0.098,0.707-0.293C58.626,57.846,58.626,57.213,58.235,56.822z M26.297,8.621c0.756-0.755,1.76-1.171,2.828-1.171
            s2.073,0.416,2.829,1.171c1.559,1.56,1.559,4.097,0,5.657c-0.745,0.744-1.762,1.118-2.783,1.129c-0.023,0-0.045,0.002-0.068,0.002
            c-0.236-0.001-0.471-0.024-0.703-0.064c-0.038-0.007-0.075-0.015-0.112-0.023c-0.213-0.043-0.422-0.102-0.626-0.178
            c-0.087-0.034-0.169-0.077-0.254-0.117c-0.154-0.07-0.308-0.14-0.452-0.231c-0.235-0.15-0.459-0.318-0.66-0.519
            c-0.005-0.005-0.008-0.011-0.013-0.015c-0.162-0.164-0.303-0.341-0.432-0.526c-0.071-0.103-0.131-0.212-0.192-0.321
            c-0.046-0.081-0.091-0.161-0.131-0.245c-0.073-0.157-0.138-0.319-0.191-0.487c-0.009-0.026-0.016-0.053-0.024-0.079
            c-0.057-0.195-0.103-0.395-0.132-0.601l-0.009-0.062c-0.02-0.163-0.048-0.325-0.048-0.492C25.126,10.381,25.542,9.377,26.297,8.621z
             M3.316,3.318C4.167,2.468,5.297,2,6.499,2S8.831,2.468,9.68,3.318c0.851,0.85,1.318,1.98,1.318,3.182
            c0,0.515-0.102,1.01-0.267,1.482c-0.086,0.248-0.197,0.482-0.322,0.706c-0.04,0.071-0.071,0.146-0.115,0.214
            C10.119,9.182,9.918,9.445,9.68,9.682c-0.238,0.237-0.501,0.438-0.78,0.614c-0.069,0.044-0.144,0.075-0.214,0.115
            c-0.223,0.124-0.454,0.234-0.699,0.32C7.513,10.897,7.016,11,6.499,11c-1.202,0-2.332-0.468-3.183-1.318
            C1.562,7.927,1.562,5.072,3.316,3.318z M9.97,11.99c0.147-0.093,0.289-0.194,0.429-0.3c0.055-0.041,0.112-0.08,0.166-0.123
            c0.173-0.139,0.34-0.287,0.5-0.445c0.009-0.009,0.02-0.017,0.029-0.026c0.008-0.008,0.015-0.018,0.024-0.027
            c0.159-0.161,0.308-0.33,0.449-0.504c0.042-0.052,0.079-0.108,0.12-0.161c0.107-0.142,0.21-0.286,0.304-0.435
            c0.013-0.02,0.028-0.038,0.04-0.058l2.246,2.245l-2.122,2.122L9.91,12.033C9.931,12.02,9.949,12.004,9.97,11.99z M8.62,31.956
            c-0.756-0.756-1.172-1.76-1.172-2.829c0-1.068,0.416-2.072,1.172-2.828c0.756-0.755,1.76-1.171,2.828-1.171
            c0.167,0,0.328,0.028,0.491,0.048l0.062,0.009c0.205,0.028,0.404,0.074,0.597,0.131c0.029,0.009,0.058,0.017,0.086,0.026
            c0.166,0.052,0.326,0.117,0.481,0.189c0.085,0.041,0.167,0.086,0.249,0.133c0.108,0.06,0.217,0.12,0.319,0.19
            c0.19,0.133,0.375,0.278,0.542,0.446c0.211,0.211,0.389,0.444,0.544,0.689c0.043,0.068,0.073,0.142,0.112,0.212
            c0.103,0.188,0.197,0.379,0.268,0.58c0.026,0.073,0.044,0.147,0.065,0.221c0.064,0.222,0.113,0.449,0.137,0.682
            c0.005,0.049,0.01,0.097,0.014,0.146c0.019,0.289,0.015,0.582-0.028,0.879l-0.037,0.252c-0.155,0.731-0.509,1.428-1.076,1.995
            C12.765,33.466,10.131,33.466,8.62,31.956z"/>
    </symbol>
</svg>
